Coordinates
version=1
nRows=29
nColumns=22
inDegrees=yes

Units are S.I. units (second, meters, Newtons, ...)
If the header above contains a line with 'inDegrees', this indicates whether rotational values are in degrees (yes) or radians (no).

endheader
time	pelvis_tilt	pelvis_list	pelvis_rotation	pelvis_tx	pelvis_ty	pelvis_tz	hip_flexion_r	hip_adduction_r	hip_rotation_r	knee_angle_r	ankle_angle_r	subtalar_angle_r	hip_flexion_l	hip_adduction_l	hip_rotation_l	knee_angle_l	ankle_angle_l	subtalar_angle_l	lumbar_extension	lumbar_bending	lumbar_rotation
      0.01000000	      1.09711873	     -3.07880628	     -4.68640436	      1.07697793	      0.92642187	      0.17901568	     -1.07217078	      3.83295637	     -0.90755610	     -9.24138734	      4.00311738	      0.81066903	     -0.87653241	     -4.66311507	    -12.41261391	    -12.35660541	      8.75909248	     -0.37129480	     -4.07214248	     -1.00152598	      4.13179455
      0.02000000	      1.09662420	     -3.07973973	     -4.68646249	      1.07703115	      0.92641425	      0.17900488	     -1.07489320	      3.83326129	     -0.90755478	     -9.24253308	      4.00278304	      0.81069859	     -0.87823254	     -4.66342416	    -12.41172566	    -12.35920201	      8.76009735	     -0.37143272	     -4.06865254	     -1.00299532	      4.13188864
      0.03000000	      1.09598381	     -3.08091423	     -4.68690688	      1.07709439	      0.92640442	      0.17899173	     -1.07803272	      3.83364849	     -0.90770589	     -9.24322469	      4.00313141	      0.81081928	     -0.88014916	     -4.66382271	    -12.41064983	    -12.36250942	      8.76143004	     -0.37156473	     -4.06434904	     -1.00464000	      4.13240060
      0.04000000	      1.09496883	     -3.08249908	     -4.68794226	      1.07717710	      0.92639301	      0.17897834	     -1.08292203	      3.83430044	     -0.90802521	     -9.24357153	      4.00443246	      0.81110883	     -0.88249615	     -4.66452729	    -12.40911091	    -12.36741360	      8.76388786	     -0.37175719	     -4.05768754	     -1.00679533	      4.13368510
      0.05000000	      1.09378393	     -3.08431237	     -4.68945289	      1.07726885	      0.92638136	      0.17896586	     -1.08817055	      3.83510395	     -0.90831927	     -9.24320281	      4.00663886	      0.81154811	     -0.88508465	     -4.66548104	    -12.40755562	    -12.37298503	      8.76727672	     -0.37199085	     -4.04977563	     -1.00899625	      4.13565895
      0.06000000	      1.09214510	     -3.08635927	     -4.69156032	      1.07736726	      0.92636648	      0.17895369	     -1.09374922	      3.83618663	     -0.90844574	     -9.24257515	      4.00951851	      0.81209702	     -0.88764232	     -4.66652816	    -12.40625497	    -12.37854917	      8.77139929	     -0.37225444	     -4.04113751	     -1.01119396	      4.13820084
      0.07000000	      1.07932306	     -3.09594880	     -4.69987034	      1.07746459	      0.92632590	      0.17895288	     -1.09286673	      3.84689074	     -0.88763014	     -9.23241286	      4.03805571	      0.81998353	     -0.87387183	     -4.67879884	    -12.41836699	    -12.39754215	      8.82699386	     -0.37712424	     -4.02046606	     -1.00387995	      4.15537519
      0.08000000	      1.07795433	     -3.09791689	     -4.70306002	      1.07756827	      0.92631225	      0.17894659	     -1.09711740	      3.84799764	     -0.88821783	     -9.23487508	      4.03818071	      0.82021797	     -0.87783740	     -4.67996092	    -12.41762081	    -12.40222327	      8.82706560	     -0.37735675	     -4.01213439	     -1.00681463	      4.15657448
      0.09000000	      1.07622794	     -3.10012777	     -4.70672431	      1.07767446	      0.92629771	      0.17894215	     -1.10145074	      3.84940888	     -0.88868903	     -9.23683207	      4.03919569	      0.82053391	     -0.88186365	     -4.68140648	    -12.41744285	    -12.40653082	      8.82828271	     -0.37759286	     -4.00283666	     -1.00988556	      4.15944481
      0.10000000	      1.07404543	     -3.10261072	     -4.71116041	      1.07778134	      0.92628226	      0.17894239	     -1.10550365	      3.85137113	     -0.88896660	     -9.23840000	      4.04121052	      0.82093549	     -0.88595362	     -4.68339675	    -12.41805753	    -12.41035367	      8.83088511	     -0.37782409	     -3.99283133	     -1.01334495	      4.16445741
      0.11000000	      1.05631545	     -3.11145938	     -4.74470410	      1.07787356	      0.92623869	      0.17898621	     -1.08637172	      3.86195377	     -0.85502323	     -9.25128942	      4.06625054	      0.82535713	     -0.87893526	     -4.69466314	    -12.45993516	    -12.41346120	      8.87395565	     -0.37930784	     -3.96744902	     -1.00918327	      4.21790101
      0.12000000	      1.05492027	     -3.11334593	     -4.74677265	      1.07796984	      0.92622555	      0.17898468	     -1.09015951	      3.86335021	     -0.85515534	     -9.25369448	      4.06641451	      0.82541692	     -0.88219290	     -4.69609391	    -12.45947652	    -12.41793089	      8.87374689	     -0.37933428	     -3.96074382	     -1.01323532	      4.21944261
      0.13000000	      1.05310196	     -3.11571594	     -4.75012193	      1.07806126	      0.92621112	      0.17899103	     -1.09314486	      3.86565284	     -0.85570843	     -9.25559892	      4.06758783	      0.82547472	     -0.88523046	     -4.69869755	    -12.45947226	    -12.42248698	      8.87485413	     -0.37925949	     -3.95455459	     -1.01828411	      4.22407821
      0.14000000	      1.05143435	     -3.11846848	     -4.75411552	      1.07815199	      0.92619801	      0.17900304	     -1.09628685	      3.86878348	     -0.85631269	     -9.25816818	      4.06942386	      0.82547014	     -0.88819004	     -4.70193951	    -12.45945251	    -12.42743188	      8.87707887	     -0.37906620	     -3.94844453	     -1.02370612	      4.23074361
      0.15000000	      1.04730246	     -3.12670093	     -4.76852979	      1.07822386	      0.92617728	      0.17902546	     -1.09425349	      3.87747002	     -0.85581770	     -9.26324132	      4.08392537	      0.82430840	     -0.88539527	     -4.71189726	    -12.46822452	    -12.44121586	      8.89797388	     -0.37654156	     -3.94455783	     -1.02258963	      4.27830839
      0.16000000	      1.04617894	     -3.12924349	     -4.77228139	      1.07831528	      0.92616515	      0.17904208	     -1.09734341	      3.88053238	     -0.85441821	     -9.26760039	      4.08457512	      0.82407603	     -0.88921236	     -4.71496079	    -12.46860830	    -12.44551921	      8.89966721	     -0.37628375	     -3.93861146	     -1.02796503	      4.27802794
      0.17000000	      1.04499328	     -3.13223834	     -4.77763727	      1.07840429	      0.92615285	      0.17906485	     -1.10062656	      3.88422794	     -0.85376520	     -9.27109205	      4.08603183	      0.82371428	     -0.89236543	     -4.71886383	    -12.46794551	    -12.45122499	      8.90220151	     -0.37590724	     -3.93354061	     -1.03339371	      4.28042115
      0.18000000	      1.04026264	     -3.15474739	     -4.79995545	      1.07847754	      0.92612373	      0.17912066	     -1.09480549	      3.91045514	     -0.82706844	     -9.28658346	      4.11100040	      0.81133774	     -0.88477664	     -4.74894835	    -12.50068022	    -12.48254147	      8.95989372	     -0.36485440	     -3.92793566	     -1.01685692	      4.32558787
      0.19000000	      1.03908036	     -3.15697092	     -4.80766746	      1.07857355	      0.92611422	      0.17915485	     -1.09946333	      3.91349702	     -0.82824861	     -9.28779911	      4.11101485	      0.81084368	     -0.88826655	     -4.75211613	    -12.49776561	    -12.48918808	      8.95982494	     -0.36453093	     -3.92107139	     -1.02304643	      4.32593631
      0.20000000	      1.03833640	     -3.15977605	     -4.81390373	      1.07867651	      0.92610411	      0.17919150	     -1.10514105	      3.91745496	     -0.82921997	     -9.28909560	      4.11175841	      0.81010740	     -0.89232970	     -4.75634694	    -12.49440639	    -12.49710277	      8.96079100	     -0.36407145	     -3.91244394	     -1.02918465	      4.32904164
      0.21000000	      1.03438428	     -3.17167576	     -4.82276979	      1.07877413	      0.92608721	      0.17923568	     -1.11438909	      3.93178197	     -0.82938109	     -9.27679759	      4.12108196	      0.80266480	     -0.88868054	     -4.77226136	    -12.48923831	    -12.51640741	      8.97822256	     -0.35909434	     -3.90186401	     -1.02521433	      4.36406945
      0.22000000	      1.03358328	     -3.17467228	     -4.82710623	      1.07887433	      0.92607965	      0.17927399	     -1.11871972	      3.93635634	     -0.82832542	     -9.28026293	      4.12121762	      0.80149950	     -0.89419212	     -4.77717553	    -12.48909915	    -12.52098405	      8.98068382	     -0.35837851	     -3.89248186	     -1.03068685	      4.36286293
      0.23000000	      1.03213749	     -3.17799937	     -4.83145364	      1.07896757	      0.92607151	      0.17931478	     -1.12311637	      3.94171780	     -0.82819217	     -9.28207304	      4.12205438	      0.80018634	     -0.89908622	     -4.78249798	    -12.48976265	    -12.52387221	      8.98395601	     -0.35750534	     -3.88283507	     -1.03563087	      4.36365164
      0.24000000	      1.02032426	     -3.19332449	     -4.84346904	      1.07907747	      0.92604854	      0.17936888	     -1.12472599	      3.96111148	     -0.82776183	     -9.27041004	      4.13014967	      0.78967600	     -0.90501975	     -4.80137208	    -12.51171869	    -12.50913731	      9.01107495	     -0.34940272	     -3.85830363	     -1.02462545	      4.38183927
      0.25000000	      1.01956343	     -3.19518027	     -4.84414421	      1.07915192	      0.92604396	      0.17939996	     -1.12763092	      3.96463016	     -0.82561200	     -9.27465356	      4.12943446	      0.78839170	     -0.90908576	     -4.80509651	    -12.51325455	    -12.51151139	      9.01253563	     -0.34828112	     -3.85074989	     -1.02954051	      4.38219381
      0.26000000	      1.00906732	     -3.20207924	     -4.85348143	      1.07923272	      0.92602703	      0.17944644	     -1.12200015	      3.97487682	     -0.82209748	     -9.27454087	      4.12899016	      0.78011793	     -0.91608258	     -4.81446896	    -12.54041808	    -12.49087487	      9.02436736	     -0.33978065	     -3.83116164	     -1.02745650	      4.38820325
      0.27000000	      1.00825345	     -3.20309668	     -4.85350039	      1.07929686	      0.92602110	      0.17947384	     -1.12424515	      3.97740287	     -0.82091910	     -9.27779184	      4.12864790	      0.77927669	     -0.92029032	     -4.81750920	    -12.54246951	    -12.49181226	      9.02466616	     -0.33874833	     -3.82344551	     -1.03219033	      4.38939327
      0.28000000	      0.99741649	     -3.20634637	     -4.86534255	      1.07937524	      0.92600570	      0.17951583	     -1.11720724	      3.98295781	     -0.81933835	     -9.27828608	      4.12928811	      0.77331890	     -0.92905598	     -4.82179350	    -12.57280288	    -12.46628898	      9.02871976	     -0.32971124	     -3.80210765	     -1.03160130	      4.39800087
      0.29000000	      0.99672382	     -3.20689820	     -4.86653515	      1.07943262	      0.92600090	      0.17954596	     -1.11912018	      3.98536223	     -0.81771931	     -9.28172480	      4.12913489	      0.77270999	     -0.93273186	     -4.82415397	    -12.57507112	    -12.46694655	      9.02846855	     -0.32846502	     -3.79554310	     -1.03619323	      4.39948196
